<svg width="22" height="22" viewBox="0 0 22 22" fill="none" xmlns="http://www.w3.org/2000/svg">
<path d="M2.16 5.04011C2.06459 5.03876 1.96987 5.05639 1.88133 5.09197C1.7928 5.12754 1.71221 5.18036 1.64427 5.24736C1.57632 5.31435 1.52237 5.39418 1.48554 5.4822C1.44871 5.57023 1.42975 5.66469 1.42975 5.76011C1.42975 5.85553 1.44871 5.95 1.48554 6.03802C1.52237 6.12605 1.57632 6.20587 1.64427 6.27287C1.71221 6.33986 1.7928 6.39268 1.88133 6.42826C1.96987 6.46383 2.06459 6.48146 2.16 6.48011H19.44C19.5354 6.48146 19.6301 6.46383 19.7187 6.42826C19.8072 6.39268 19.8878 6.33986 19.9557 6.27287C20.0237 6.20587 20.0776 6.12605 20.1145 6.03802C20.1513 5.95 20.1703 5.85553 20.1703 5.76011C20.1703 5.66469 20.1513 5.57023 20.1145 5.4822C20.0776 5.39418 20.0237 5.31435 19.9557 5.24736C19.8878 5.18036 19.8072 5.12754 19.7187 5.09197C19.6301 5.05639 19.5354 5.03876 19.44 5.04011H2.16ZM2.16 10.0801C2.06459 10.0788 1.96987 10.0964 1.88133 10.132C1.7928 10.1675 1.71221 10.2204 1.64427 10.2874C1.57632 10.3543 1.52237 10.4342 1.48554 10.5222C1.44871 10.6102 1.42975 10.7047 1.42975 10.8001C1.42975 10.8955 1.44871 10.99 1.48554 11.078C1.52237 11.166 1.57632 11.2459 1.64427 11.3129C1.71221 11.3799 1.7928 11.4327 1.88133 11.4683C1.96987 11.5038 2.06459 11.5215 2.16 11.5201H19.44C19.5354 11.5215 19.6301 11.5038 19.7187 11.4683C19.8072 11.4327 19.8878 11.3799 19.9557 11.3129C20.0237 11.2459 20.0776 11.166 20.1145 11.078C20.1513 10.99 20.1703 10.8955 20.1703 10.8001C20.1703 10.7047 20.1513 10.6102 20.1145 10.5222C20.0776 10.4342 20.0237 10.3543 19.9557 10.2874C19.8878 10.2204 19.8072 10.1675 19.7187 10.132C19.6301 10.0964 19.5354 10.0788 19.44 10.0801H2.16ZM2.16 15.1201C2.06459 15.1188 1.96987 15.1364 1.88133 15.172C1.7928 15.2075 1.71221 15.2604 1.64427 15.3274C1.57632 15.3943 1.52237 15.4742 1.48554 15.5622C1.44871 15.6502 1.42975 15.7447 1.42975 15.8401C1.42975 15.9355 1.44871 16.03 1.48554 16.118C1.52237 16.206 1.57632 16.2859 1.64427 16.3529C1.71221 16.4199 1.7928 16.4727 1.88133 16.5083C1.96987 16.5438 2.06459 16.5615 2.16 16.5601H19.44C19.5354 16.5615 19.6301 16.5438 19.7187 16.5083C19.8072 16.4727 19.8878 16.4199 19.9557 16.3529C20.0237 16.2859 20.0776 16.206 20.1145 16.118C20.1513 16.03 20.1703 15.9355 20.1703 15.8401C20.1703 15.7447 20.1513 15.6502 20.1145 15.5622C20.0776 15.4742 20.0237 15.3943 19.9557 15.3274C19.8878 15.2604 19.8072 15.2075 19.7187 15.172C19.6301 15.1364 19.5354 15.1188 19.44 15.1201H2.16Z" fill="black"/>
</svg>
