<svg width="99" height="100" viewBox="0 0 99 100" fill="none" xmlns="http://www.w3.org/2000/svg">
<g clip-path="url(#clip0_30_61)">
<path d="M50.1626 28.4008H49.1134C49.0109 29.4115 48.9083 30.3827 48.8058 31.3539C48.4981 34.5359 48.3167 37.7179 49.0661 40.8683C49.5394 42.866 50.5413 44.4372 52.5292 45.2268C52.6948 45.29 52.8289 45.4321 52.9236 45.6374C51.7482 45.5189 50.628 45.2742 49.6893 44.4925C48.0643 43.1344 47.307 41.3026 46.8968 39.2971C46.6601 38.1443 46.526 36.9757 46.2026 35.7281C46.0133 36.115 45.8161 36.494 45.6346 36.8809C44.4671 39.376 43.0156 41.6895 40.9173 43.4976C37.0046 46.8691 32.5555 48.2114 27.4674 46.7428C25.9686 46.3085 24.5802 45.6137 23.5705 44.3662C21.7719 42.1553 21.5826 39.1707 22.9868 36.5019C24.0202 34.5438 25.5979 33.1462 27.4043 31.9618C30.5361 29.9168 34.0228 28.764 37.6751 28.1324C40.16 27.6981 42.6843 27.4849 45.1929 27.1691C45.4453 27.1375 45.7056 27.098 45.9344 27.0664C46.8021 23.9318 45.0114 20.0787 42.1558 18.689C40.1758 17.7257 38.0617 17.4415 35.9397 17.3862C31.7982 17.2756 27.7278 17.7415 23.9571 19.6049C23.0578 20.0471 22.261 20.7103 21.4643 21.3341C21.1409 21.5868 20.9121 21.9894 20.7307 22.3684C20.1785 23.4896 20.5887 24.5714 21.7562 25.0214C22.2926 25.2267 22.8842 25.2978 23.4522 25.432C22.0717 26.0716 19.6578 25.3925 18.8374 24.1529C18.3089 23.3475 18.3641 22.5422 18.7822 21.721C19.3265 20.6472 20.2495 19.9681 21.2513 19.3759C23.8939 17.8284 26.7969 16.9677 29.7945 16.5019C31.7035 16.2018 33.6441 15.9965 35.5768 15.957C38.4719 15.8939 41.3512 16.1071 44.0648 17.3072C47.2833 18.7285 48.9083 21.2078 49.0898 24.6819C49.1134 25.1715 49.0898 25.6689 49.1134 26.1584C49.1292 26.5374 49.0188 26.9875 49.6104 27.0586C50.1784 27.1217 50.4229 26.9164 50.6123 26.2532C50.841 25.432 51.0619 24.603 51.3617 23.8055C53.0577 19.3049 56.363 16.5887 60.9146 15.3254C63.3285 14.6542 65.7897 14.5674 68.2115 15.2859C69.2054 15.578 70.1836 16.0281 71.0592 16.5887C72.7947 17.702 73.2522 19.5496 72.3845 21.4209C71.6035 23.1185 70.1994 24.1687 68.6217 25.0451C65.4899 26.7822 62.0742 27.5402 58.556 27.9271C57.2228 28.0771 55.8739 28.1166 54.5249 28.2034C54.0753 28.2271 53.6809 28.2429 53.6414 28.8588C53.4127 33.1067 53.9175 37.1968 56.1105 40.9394C59.1792 46.1901 64.8746 47.335 69.7576 44.8873C71.2407 44.1451 72.5896 43.1107 73.9859 42.1869C75.035 41.4921 76.0921 40.7973 77.3542 40.6314C78.08 40.5367 78.8452 40.663 79.5709 40.7736C79.8154 40.813 80.0758 41.0894 80.2099 41.3263C80.4229 41.6895 80.2099 42.0448 79.7918 42.1316C79.6656 42.1553 79.5236 42.1632 79.3973 42.1474C77.3937 41.8158 75.7529 42.7001 74.1436 43.7029C71.7928 45.1715 69.3711 46.498 66.5864 46.9402C60.4729 47.9114 55.1955 45.4242 52.3319 39.9524C50.5807 36.6046 49.9181 33.0278 50.1389 29.2694C50.1547 29.0088 50.1389 28.7561 50.1389 28.3772L50.1626 28.4008ZM46.0054 28.4403C43.9623 28.6377 42.1952 28.7483 40.444 28.9851C36.9021 29.4668 33.4785 30.359 30.4098 32.2698C27.8066 33.8884 25.8503 36.0124 25.3139 39.1786C24.7459 42.5422 26.5208 45.2031 29.8576 45.89C31.3565 46.198 32.8632 46.1269 34.3462 45.74C36.9415 45.061 39.0556 43.624 40.8069 41.6184C43.4495 38.5943 44.9562 35.0254 45.6741 31.1091C45.8161 30.3195 45.8713 29.5141 45.9975 28.4482L46.0054 28.4403ZM53.957 26.9085C54.241 26.9322 54.5249 26.9875 54.8089 26.9796C58.0669 26.8927 61.309 26.648 64.4329 25.6057C66.4129 24.9425 68.314 24.1213 69.7103 22.4869C71.7218 20.126 70.9882 17.5836 68.0616 16.6361C67.9669 16.6045 67.8723 16.5729 67.7776 16.5492C61.1276 14.8201 54.7616 18.839 53.957 26.9085Z" fill="white"/>
<path d="M39.4264 75.5784C37.8645 77.8445 35.3165 78.0498 32.9894 78.6893C33.8887 79.2815 37.1466 80.2606 38.1642 80.1027C38.7874 80.0079 39.3948 79.6763 39.947 79.3447C40.1521 79.2183 40.231 78.792 40.2626 78.4919C40.3178 77.955 40.5229 77.5207 41.012 77.3076C41.5011 77.0944 41.9901 77.1812 42.3767 77.5681C42.7001 77.8918 42.8184 78.2945 42.6291 78.7446C42.4082 79.2657 41.9507 79.5894 41.4616 79.4552C40.5308 79.1947 40.0022 79.7711 39.3633 80.3632C39.7971 80.3948 40.231 80.4343 40.6649 80.4501C41.0909 80.4738 41.5326 80.4027 41.9428 80.4975C43.2365 80.7817 44.2226 80.1343 45.2323 79.5026C45.6188 79.2657 45.6504 78.8946 45.7135 78.4919C45.8713 77.4023 46.8179 76.9365 47.6383 77.5207C48.0169 77.7892 48.2694 78.1919 48.0958 78.6183C47.9617 78.942 47.6225 79.1868 47.3385 79.4315C47.236 79.5184 47.023 79.4947 46.8573 79.4947C46.1421 79.5105 45.44 79.7842 44.7511 80.3159C45.682 80.3159 46.5734 80.3238 47.4726 80.3159C47.7645 80.3159 48.0564 80.2211 48.3562 80.2211C49.3264 80.2211 49.9812 79.8895 50.4466 78.9341C50.7543 78.3024 51.4327 77.8287 52.0164 77.3707C52.2531 77.1812 52.6712 77.2286 53.1524 77.1338C52.8132 78.6498 51.6299 79.1236 50.6911 79.9684C51.054 79.9527 51.4169 79.9605 51.7719 79.9132C52.3951 79.8421 53.0025 79.7 53.6257 79.6605C54.4382 79.6131 54.8405 79.1868 55.1245 78.4682C55.3611 77.8603 55.653 77.2523 56.0474 76.747C56.3709 76.3364 56.8757 76.0758 57.4121 75.8468C57.4989 77.505 56.3077 78.3498 55.2586 79.2736C55.298 79.3368 55.3296 79.4078 55.369 79.471C56.4024 79.2183 57.4516 79.0052 58.4613 78.6814C58.7374 78.5946 58.9819 78.1919 59.1082 77.8761C59.3133 77.3628 59.3843 76.7943 59.5341 76.2653C59.8655 75.1046 60.6228 74.3861 61.948 73.9913C61.735 75.9337 60.1731 76.8338 59.4631 78.3419C59.8181 78.1287 60.2204 77.9629 60.5281 77.6866C61.38 76.9128 62.232 76.1548 63.3285 75.7047C63.644 75.5784 63.8965 75.1836 64.07 74.852C64.5591 73.936 65.2454 73.2728 66.263 73.0043C66.618 72.9096 67.0045 72.9333 67.5015 72.8938C66.9888 74.473 65.7818 74.9704 64.5591 75.4994C65.7108 75.6573 66.8231 75.7363 67.8959 75.152C69.6235 74.2124 71.4537 74.4572 73.2759 74.7572C73.3232 74.7572 73.3548 74.852 73.3863 74.9072C73.3863 74.9388 73.3863 74.9862 73.3706 74.9941C71.7534 75.6652 70.2546 76.7154 68.385 76.5417C67.9669 76.5022 67.5331 76.4311 67.1386 76.2732C65.6083 75.6731 64.1016 75.76 62.6659 76.5022C62.0506 76.818 61.5378 77.3628 61.033 77.884C61.6325 78.0813 62.1137 77.8682 62.6107 77.6471C63.6046 77.2049 64.6301 77.0154 65.6635 77.4576C66.0658 77.6313 66.4129 77.9234 66.7837 78.1603C66.689 78.334 66.6575 78.4288 66.6338 78.4288C65.2296 78.4524 63.8176 78.5551 62.4213 78.4603C61.033 78.3656 59.7787 78.7051 58.5086 79.2894C59.9522 79.6842 61.5299 79.7474 62.6422 80.9712C61.6956 81.5476 60.5123 81.4765 59.5972 80.7975C59.3606 80.6238 59.1397 80.4185 58.9425 80.2053C58.3745 79.5973 57.7119 79.3999 56.8915 79.5737C55.8581 79.7868 54.8089 79.9369 53.7519 80.2527C55.4006 80.4185 57.207 80.0079 58.3903 81.8713C58.0827 81.8871 57.9012 81.9345 57.7356 81.9029C56.1579 81.595 54.5565 81.3739 53.1681 80.458C52.892 80.2764 52.4818 80.2606 52.1347 80.2685C51.5194 80.2843 50.8962 80.3869 50.0443 80.4817C50.7543 80.7975 51.3143 80.9475 51.7561 81.2634C52.1978 81.5792 52.5607 82.0214 52.8841 82.4635C53.2233 82.9373 53.46 83.4742 53.744 83.9874C53.6967 84.0506 53.6572 84.1137 53.6099 84.169C53.1997 83.9637 52.7264 83.8374 52.3793 83.5452C51.7009 82.9846 51.0382 82.3846 50.4782 81.7055C49.8155 80.9001 49.0819 80.5212 48.0091 80.6396C45.4295 80.9238 42.8421 81.1133 40.2389 80.8686C39.9234 80.837 39.6078 80.8686 39.2449 81.0107C39.5605 81.1449 39.876 81.2949 40.1995 81.4213C40.8148 81.6581 41.4222 81.8713 41.714 82.5662C41.785 82.7399 42.1164 82.8425 42.353 82.9215C43.1734 83.1741 43.5836 83.7979 43.3391 84.4375C43.0945 85.0612 42.3136 85.385 41.6983 85.1086C40.9883 84.8007 40.7911 84.1769 41.1461 83.3873C41.4301 82.7557 41.3275 82.3293 40.7122 82.0293C39.8997 81.6266 39.0635 81.2949 38.1248 81.0818C38.4403 81.3107 38.7638 81.5318 39.0793 81.7687C39.592 82.1635 39.734 82.803 39.4343 83.3478C39.1345 83.8927 38.4719 84.1137 37.9039 83.869C37.3833 83.64 37.0441 83.0083 37.257 82.4872C37.3912 82.1398 37.6909 81.8555 37.9355 81.5081C37.6436 80.9712 37.257 80.4975 36.6023 80.3395C34.5197 79.85 32.5003 79.1631 30.5518 78.2708C30.4729 78.2314 30.3704 78.2314 30.1969 78.2708C31.317 79.621 32.6659 80.8212 33.1077 82.6293C32.0664 82.3135 31.2302 81.7529 30.7175 80.7896C30.4729 80.3316 30.2678 79.8263 30.1495 79.321C29.9208 78.3735 29.3528 77.7734 28.485 77.3865C27.7672 77.0707 27.0572 76.7154 26.3473 76.368C26.0317 76.2179 25.732 76.0363 25.4243 75.8705C25.4401 75.8074 25.4638 75.7442 25.4795 75.681C25.6689 75.7126 25.874 75.7047 26.0396 75.7837C26.8206 76.1311 27.5937 76.4943 28.3588 76.8654C29.8024 77.5681 30.8279 77.3707 31.8692 76.1706C32.5397 75.4047 33.1471 74.5598 34.1805 74.2361C34.504 74.1334 34.8432 74.1019 35.3717 73.9992C34.3068 76.2337 32.5003 77.047 30.331 77.576C30.9068 78.1208 31.5142 78.3419 32.098 78.3103C33.3444 78.2551 34.5671 78.0892 35.5295 77.0865C36.4051 76.1706 37.5174 75.5942 38.8032 75.4126C38.9294 75.3968 39.0635 75.381 39.1976 75.3968C39.2528 75.3968 39.3002 75.4678 39.4185 75.5626L39.4264 75.5784ZM67.4384 75.8863C69.2291 76.589 70.5859 75.7521 71.9664 75.0494C70.4913 75.2546 68.9214 74.8441 67.4384 75.8863ZM38.4324 83.5373C38.7874 83.5216 39.1661 83.111 39.1266 82.7241C39.0872 82.3293 38.8742 82.045 38.4403 82.0371C38.0459 82.0292 37.683 82.4082 37.683 82.7951C37.683 83.2057 38.0301 83.5531 38.4324 83.5373ZM47.1255 77.6708C46.455 77.7339 46.2184 78.034 46.1947 78.4682C46.171 78.8946 46.455 79.1315 46.8573 79.1631C47.2754 79.1947 47.7487 78.7367 47.6304 78.3498C47.5357 78.0656 47.2518 77.8366 47.1177 77.6629L47.1255 77.6708ZM42.9447 84.0585C42.9604 83.7032 42.5818 83.2926 42.211 83.2689C41.8482 83.2452 41.4379 83.6163 41.4222 83.9874C41.4064 84.3822 41.7456 84.7375 42.1479 84.7612C42.5502 84.777 42.9289 84.4454 42.9447 84.0664V84.0585ZM42.2662 78.3182C42.2268 77.9234 42.0059 77.6866 41.5799 77.6629C41.1303 77.6392 40.8226 77.9155 40.8226 78.3656C40.8226 78.7999 41.0356 79.0446 41.4774 79.0525C41.8876 79.0683 42.2584 78.7288 42.2741 78.3182H42.2662ZM52.7185 83.1583C52.3872 82.2187 51.8823 81.4765 50.699 81.2397C51.196 82.203 51.8665 82.7715 52.7185 83.1583ZM61.7114 80.8449C61.0487 80.1658 60.3467 80.0632 59.4631 80.1027C60.1179 80.7896 60.7726 81.0265 61.7114 80.8449ZM52.4582 77.9787C52.3951 77.8997 52.3241 77.8208 52.261 77.7339C51.4721 77.9155 51.0461 78.4682 50.7306 79.1394C50.7858 79.2025 50.841 79.2657 50.9041 79.3289C51.4248 78.8788 51.9454 78.4288 52.4582 77.9787Z" fill="white"/>
<path d="M21.5039 67.951C22.3454 67.4246 22.5741 66.6745 22.1902 65.7007C21.7064 64.4742 20.815 63.8584 19.516 63.8531C18.4064 63.8531 17.6491 64.3637 17.2441 65.3849C17.1968 65.5112 17.1416 65.6297 17.0943 65.7481C16.7209 66.6851 16.947 67.3983 17.7727 67.8879C17.1731 68.2195 15.3746 68.259 14.6331 67.951C14.6488 67.8879 14.6488 67.7852 14.6725 67.7773C15.6822 67.4299 16.0688 66.6245 16.408 65.677C17.4019 62.9293 18.4748 60.2131 19.5318 57.4891C19.6422 57.1969 19.8158 56.9285 20.0761 56.4311C20.3522 56.9206 20.5573 57.1969 20.6756 57.5049C21.7327 60.2605 22.774 63.0319 23.8231 65.7876C23.9494 66.1271 24.0756 66.4666 24.2412 66.7824C24.612 67.4773 25.1011 67.7142 25.8663 67.6115C26.4895 67.5247 26.7261 67.2957 26.7498 66.6482C26.7734 65.9613 26.7498 65.2665 26.7498 64.5795C26.7498 62.6372 26.7182 60.7027 26.7656 58.7603C26.7892 57.8444 26.7813 57.0311 25.5586 56.8022C26.3159 56.3758 27.1126 56.4232 27.9725 56.1863C27.9962 56.6363 28.0356 56.9838 28.0356 57.3312C28.0356 60.2526 28.0356 63.182 28.0356 66.1034C28.0356 67.2799 28.0829 67.3588 29.2425 67.8168C29.0848 67.951 28.9664 68.1247 28.8481 68.1247C26.521 68.1326 24.186 68.1247 21.8589 68.1168C21.7485 68.1168 21.638 68.0142 21.496 67.9431L21.5039 67.951ZM18.1119 63.1504C19.2005 63.1662 20.1077 63.2688 21.1726 63.0398C20.6599 61.6976 20.1944 60.4737 19.7369 59.2499C19.6659 59.2577 19.6028 59.2735 19.5318 59.2814C19.0822 60.5211 18.6246 61.7607 18.1198 63.1583L18.1119 63.1504Z" fill="white"/>
<path d="M69.1662 59.2025C69.0636 58.9735 68.9374 58.7524 68.8585 58.5155C68.6219 57.7497 68.1091 57.3943 67.3203 57.4022C66.4368 57.4101 65.5533 57.4022 64.512 57.4022C64.4568 58.9024 64.4646 60.3237 64.5199 61.8871C65.3955 61.8871 66.2001 61.9265 67.0047 61.8634C67.2335 61.8476 67.478 61.5633 67.6437 61.3422C67.7857 61.1527 67.8251 60.8764 67.9198 60.6C68.3221 61.1212 68.3773 63.0083 68.0302 64.0742C67.904 63.8531 67.7936 63.7189 67.7463 63.561C67.478 62.724 67.3834 62.6372 66.5078 62.6135C65.8925 62.5977 65.2693 62.6135 64.512 62.6135C64.512 64.0426 64.4804 65.377 64.5277 66.7114C64.5435 67.272 65.0326 67.4615 65.5217 67.4773C66.3105 67.501 67.0994 67.4931 67.8882 67.4615C68.8033 67.4299 69.3239 66.9088 69.5369 66.0403C69.6079 65.7639 69.7184 65.5033 69.9314 65.2586C70.168 66.1745 69.9629 67.0588 69.8209 68.03H61.5459C61.7116 67.8405 61.7668 67.73 61.8299 67.7142C62.8712 67.5483 63.0684 66.8772 63.0447 65.9297C62.9974 63.7268 63.0289 61.5239 63.0368 59.3209C63.0368 57.6944 63.0447 57.6944 61.7431 56.9127C64.2595 56.8495 66.776 56.6837 69.3634 56.8416V59.163C69.3003 59.1709 69.2293 59.1867 69.1662 59.1946V59.2025Z" fill="white"/>
<path d="M40.5545 68.267C40.4519 67.8959 40.3809 67.6511 40.302 67.3747C40.2153 67.3905 40.1127 67.3747 40.0496 67.43C39.4501 67.9196 38.7875 68.2433 37.9986 68.2907C36.7128 68.3617 35.7504 67.6195 35.6005 66.3404C35.5058 65.4955 35.5295 64.6349 35.5137 63.7822C35.5058 63.4189 35.5137 63.0636 35.5137 62.7004C35.5137 61.9029 35.6478 61.0186 34.291 61.0581C34.7959 60.6712 36.3499 60.4975 36.6023 60.7502C36.7601 60.9081 36.8469 61.2081 36.8469 61.445C36.8706 62.4951 36.8469 63.5453 36.8469 64.5954C36.8469 64.9586 36.8469 65.3139 36.8469 65.6771C36.8627 66.4036 37.0204 67.0668 37.8014 67.3432C38.5508 67.6116 39.6789 67.2958 40.1127 66.6483C40.2626 66.4272 40.3178 66.1035 40.3257 65.8193C40.3494 64.8007 40.302 63.7821 40.3494 62.7636C40.3888 61.8793 40.3494 61.1055 39.1898 60.8923C39.9471 60.5133 40.6965 60.6712 41.5405 60.687C41.5721 61.0265 41.6194 61.3423 41.6194 61.6503C41.6273 62.961 41.6273 64.2796 41.6273 65.5903C41.6273 66.5483 42.0612 67.2616 42.9289 67.7301C42.1322 68.1248 41.3433 68.0064 40.5387 68.2433L40.5545 68.267Z" fill="white"/>
<path d="M84.3592 67.4774C83.6492 68.5275 82.6395 68.4564 81.7876 67.3431C81.188 67.6274 80.628 67.9748 80.0205 68.1643C79.1134 68.4486 78.009 67.9195 77.6856 67.1615C77.3621 66.4114 77.5357 65.4876 78.2614 65.077C79.137 64.5796 80.0994 64.2322 81.0303 63.8532C81.8349 63.5295 82.0163 63.1347 81.7718 62.0372C81.5904 61.2081 81.0855 60.7975 80.3282 60.8765C79.7602 60.9396 79.3264 61.1844 79.2317 61.8082C79.208 61.9661 79.1686 62.1319 79.1134 62.2898C78.9398 62.8267 78.5848 63.0399 78.1746 62.8425C77.725 62.6215 77.7092 62.2188 77.867 61.8319C77.9774 61.5713 78.1904 61.3344 78.4113 61.1449C79.3342 60.3317 81.046 60.158 82.111 60.7817C82.892 61.2397 83.1917 61.9819 83.1996 62.8504C83.2154 63.9006 83.1917 64.9507 83.1996 66.0009C83.1996 67.2484 83.2075 67.2484 84.3513 67.4695L84.3592 67.4774ZM81.7718 64.1217C80.9829 64.4533 80.3676 64.6665 79.7997 64.9586C79.2238 65.2508 78.9635 65.7719 79.0266 66.4351C79.0739 66.9168 79.3342 67.2247 79.7997 67.3431C80.4386 67.5011 80.9829 67.3116 81.3853 66.8062C81.5588 66.5851 81.7323 66.3009 81.7639 66.0324C81.8191 65.4876 81.7797 64.927 81.7797 64.1296L81.7718 64.1217Z" fill="white"/>
<path d="M56.0396 63.8214H51.2828C51.1093 65.1479 51.3065 66.2454 52.3004 66.9403C53.6493 67.8799 54.9036 67.3509 56.1184 66.4034C56.0711 66.5613 56.0711 66.7508 55.9765 66.8771C54.525 68.8984 51.5116 68.701 50.2021 66.5218C49.0977 64.6821 49.7682 61.1447 52.6712 60.5368C55.1087 60.0235 56.6549 62.1475 56.0317 63.8214H56.0396ZM54.6354 63.1345C54.8721 61.9975 54.3988 61.0974 53.5389 60.9474C52.4345 60.7657 51.5431 61.6422 51.3932 63.1345H54.6354Z" fill="white"/>
<path d="M33.5732 68.0457H30.0313C30.0944 67.872 30.1023 67.7772 30.1338 67.7694C31.0174 67.5877 31.183 67.0192 31.1672 66.1823C31.1199 63.7267 31.1593 61.2632 31.1672 58.8076C31.1672 57.4258 31.1751 57.4258 29.9761 56.6915C30.8201 56.502 31.5222 56.3362 32.3584 56.1467C32.4136 56.6047 32.4925 56.9758 32.4925 57.339C32.5004 60.1894 32.5162 63.0477 32.4925 65.8981C32.4925 66.7903 32.4452 67.643 33.6837 67.8325L33.5653 68.0457H33.5732Z" fill="white"/>
<path d="M71.1539 67.8167C72.6211 67.5483 72.4239 66.5534 72.4003 65.6059C72.3766 64.69 72.3845 63.7662 72.416 62.8503C72.4555 61.6422 72.4239 61.5633 71.2486 61.05C71.9664 60.5605 72.7631 60.7263 73.5125 60.45C73.623 60.8211 73.7098 61.1211 73.7729 61.3422C74.3014 61.0658 74.8141 60.7026 75.3821 60.5289C75.745 60.4184 76.2341 60.521 76.5891 60.6868C76.9993 60.8763 77.0387 61.3422 76.8257 61.7133C76.5891 62.1239 76.2104 62.1318 75.8081 61.8949C74.538 61.1448 73.7886 61.5396 73.7255 63.024C73.6782 64.0741 73.7019 65.1243 73.7098 66.1744C73.7098 67.2561 73.7255 67.2482 74.751 67.6193C74.8536 67.6588 74.9404 67.7536 75.0745 67.8483C74.2698 68.1247 72.0926 68.1247 71.146 67.8088L71.1539 67.8167Z" fill="white"/>
<path d="M47.4649 68.0615C46.2107 68.2195 44.9564 68.1563 43.6784 68.0773C43.7179 67.8878 43.7179 67.7773 43.7416 67.7694C44.7828 67.5562 44.9248 66.8298 44.8617 65.9218C44.8065 65.0375 44.8459 64.1531 44.8459 63.2609C44.8459 62.266 44.4068 61.5343 43.5286 61.0659C44.349 60.7263 45.1142 60.7342 45.8872 60.5763C45.9898 60.9001 46.0687 61.1685 46.1791 61.5317C46.4079 61.3343 46.6051 61.1369 46.826 60.9869C47.4176 60.5921 48.0487 60.3158 48.7586 60.6395C49.2241 60.8448 49.3976 61.3975 49.1688 61.7923C48.9401 62.1792 48.5456 62.2265 48.0644 61.9186C47.0863 61.2948 46.2501 61.6423 46.1712 62.8029C46.0765 64.1057 46.1239 65.4244 46.1239 66.743C46.1239 67.1772 46.329 67.4852 46.7944 67.5878C47.0311 67.6431 47.2519 67.7536 47.4886 67.8326C47.4807 67.9115 47.4649 67.9826 47.457 68.0615H47.4649Z" fill="white"/>
<path d="M44.4119 81.4292C44.8616 81.4292 45.3033 81.8556 45.2954 82.2898C45.2875 82.7241 44.83 83.1189 44.3646 83.1031C43.9386 83.0794 43.5678 82.7162 43.5442 82.2898C43.5205 81.8477 43.9386 81.4371 44.4119 81.4292Z" fill="white"/>
</g>
<defs>
<clipPath id="clip0_30_61">
<rect width="69.7185" height="70.4227" fill="white" transform="translate(14.6409 14.7886)"/>
</clipPath>
</defs>
</svg>
