<svg width="70" height="71" viewBox="0 0 70 71" fill="none" xmlns="http://www.w3.org/2000/svg">
<g clip-path="url(#clip0_389_265)">
<path d="M35.3723 13.5551H34.3276C34.2255 14.5615 34.1233 15.5286 34.0212 16.4957C33.7149 19.6643 33.5342 22.8329 34.2804 25.9701C34.7518 27.9593 35.7494 29.524 37.7289 30.3102C37.8939 30.3731 38.0274 30.5146 38.1217 30.7191C36.9512 30.6011 35.8358 30.3574 34.901 29.579C33.2828 28.2266 32.5287 26.4025 32.1202 24.4054C31.8846 23.2575 31.751 22.0938 31.429 20.8515C31.2404 21.2368 31.0441 21.6142 30.8634 21.9995C29.7008 24.484 28.2554 26.7878 26.1659 28.5883C22.2697 31.9456 17.8393 33.2823 12.7727 31.8198C11.2802 31.3874 9.89763 30.6955 8.89216 29.4532C7.10115 27.2517 6.91262 24.2796 8.31086 21.6221C9.33991 19.6722 10.911 18.2805 12.7098 17.1011C15.8284 15.0647 19.3004 13.9167 22.9374 13.2877C25.4118 12.8553 27.9255 12.643 30.4235 12.3285C30.6749 12.2971 30.9341 12.2577 31.1619 12.2263C32.026 9.10485 30.2428 5.26792 27.3992 3.88411C25.4275 2.92487 23.3223 2.64182 21.2092 2.58678C17.0852 2.47671 13.0319 2.9406 9.27707 4.79616C8.38156 5.23647 7.58818 5.89692 6.79479 6.51807C6.47273 6.76967 6.24493 7.17066 6.06425 7.54806C5.51438 8.66455 5.92286 9.74172 7.08544 10.1899C7.6196 10.3943 8.20875 10.4651 8.77433 10.5987C7.39965 11.2356 4.99594 10.5594 4.17899 9.325C3.65268 8.52302 3.70767 7.72104 4.124 6.90333C4.66601 5.83402 5.58508 5.15784 6.5827 4.56815C9.21422 3.02709 12.105 2.17007 15.09 1.70617C16.991 1.4074 18.9234 1.20297 20.8479 1.16366C23.7308 1.10076 26.598 1.31305 29.3002 2.50816C32.5051 3.92342 34.1233 6.39227 34.304 9.8518C34.3276 10.3393 34.304 10.8346 34.3276 11.3221C34.3433 11.6995 34.2333 12.1477 34.8225 12.2184C35.388 12.2813 35.6315 12.0769 35.8201 11.4165C36.0479 10.5987 36.2678 9.77317 36.5663 8.97905C38.2552 4.49739 41.5466 1.79266 46.0791 0.534651C48.4828 -0.133668 50.9336 -0.220156 53.3452 0.495338C54.335 0.786253 55.309 1.23442 56.181 1.79266C57.9091 2.90128 58.3647 4.74113 57.5007 6.60456C56.723 8.29501 55.3247 9.34073 53.7537 10.2135C50.6351 11.9432 47.2338 12.698 43.7303 13.0833C42.4028 13.2327 41.0595 13.272 39.7163 13.3585C39.2685 13.3821 38.8758 13.3978 38.8365 14.0111C38.6087 18.2412 39.1114 22.314 41.2952 26.0408C44.3509 31.2694 50.0224 32.4095 54.8848 29.9721C56.3616 29.233 57.7049 28.203 59.0953 27.2831C60.14 26.5912 61.1926 25.8993 62.4495 25.7342C63.1722 25.6398 63.9341 25.7656 64.6568 25.8757C64.9003 25.915 65.1596 26.1902 65.2931 26.4261C65.5052 26.7878 65.2931 27.1416 64.8768 27.2281C64.7511 27.2517 64.6097 27.2595 64.484 27.2438C62.4888 26.9136 60.8549 27.7942 59.2524 28.7927C56.9115 30.2552 54.4999 31.5761 51.727 32.0164C45.6392 32.9835 40.384 30.5068 37.5325 25.058C35.7887 21.7243 35.1288 18.1625 35.3488 14.42C35.3645 14.1605 35.3488 13.9089 35.3488 13.5315L35.3723 13.5551ZM31.2326 13.5944C29.1981 13.7909 27.4385 13.901 25.6946 14.1369C22.1676 14.6165 18.7584 15.505 15.7027 17.4077C13.1104 19.0196 11.1623 21.1346 10.6282 24.2875C10.0626 27.6369 11.83 30.2866 15.1528 30.9707C16.6453 31.2773 18.1457 31.2065 19.6225 30.8213C22.2069 30.1451 24.3121 28.7141 26.056 26.717C28.6875 23.7056 30.1878 20.1518 30.9027 16.2519C31.0441 15.4657 31.099 14.6637 31.2247 13.6022L31.2326 13.5944ZM39.1507 12.069C39.4335 12.0926 39.7163 12.1477 39.9991 12.1398C43.2433 12.0533 46.4718 11.8096 49.5825 10.7717C51.5542 10.1113 53.4473 9.29356 54.8377 7.666C56.8408 5.31509 56.1103 2.78335 53.196 1.83984C53.1017 1.80839 53.0074 1.77694 52.9132 1.75335C46.2912 0.0314462 39.952 4.0335 39.1507 12.069Z" fill="black"/>
<path d="M24.6813 60.534C23.126 62.7906 20.5887 62.995 18.2714 63.6318C19.1669 64.2215 22.4111 65.1965 23.4245 65.0392C24.045 64.9449 24.6499 64.6147 25.1998 64.2844C25.404 64.1586 25.4826 63.7341 25.514 63.4353C25.569 62.9006 25.7732 62.4682 26.2602 62.2559C26.7473 62.0436 27.2343 62.1301 27.6192 62.5154C27.9413 62.8377 28.0591 63.2387 27.8706 63.6869C27.6506 64.2058 27.195 64.5282 26.708 64.3945C25.7811 64.1351 25.2548 64.709 24.6185 65.2987C25.0505 65.3302 25.4826 65.3695 25.9146 65.3852C26.3388 65.4088 26.7787 65.338 27.1872 65.4324C28.4754 65.7154 29.4573 65.0707 30.4628 64.4417C30.8477 64.2058 30.8791 63.8363 30.942 63.4353C31.0991 62.3502 32.0417 61.8864 32.8587 62.4682C33.2357 62.7355 33.4871 63.1365 33.3143 63.5611C33.1807 63.8834 32.843 64.1272 32.5602 64.3709C32.4581 64.4574 32.246 64.4338 32.081 64.4338C31.3688 64.4496 30.6697 64.7221 29.9836 65.2515C30.9106 65.2515 31.7982 65.2594 32.6937 65.2515C32.9844 65.2515 33.275 65.1572 33.5735 65.1572C34.5397 65.1572 35.1917 64.827 35.6552 63.8756C35.9615 63.2466 36.6371 62.7748 37.2184 62.3188C37.454 62.1301 37.8703 62.1773 38.3495 62.0829C38.0117 63.5925 36.8334 64.0643 35.8987 64.9056C36.26 64.8899 36.6214 64.8977 36.9748 64.8505C37.5954 64.7798 38.2003 64.6383 38.8208 64.5989C39.6299 64.5518 40.0306 64.1272 40.3133 63.4117C40.549 62.8063 40.8396 62.2009 41.2324 61.6977C41.5545 61.2888 42.0572 61.0293 42.5914 60.8013C42.6778 62.4525 41.4916 63.2938 40.4469 64.2137C40.4862 64.2766 40.5176 64.3473 40.5569 64.4102C41.5859 64.1586 42.6306 63.9463 43.6361 63.624C43.9111 63.5375 44.1546 63.1365 44.2803 62.822C44.4845 62.3109 44.5552 61.7448 44.7044 61.218C45.0344 60.0622 45.7885 59.3467 47.1082 58.9536C46.8961 60.8878 45.3407 61.7841 44.6337 63.2859C44.9872 63.0736 45.3879 62.9085 45.6942 62.6333C46.5426 61.8628 47.391 61.108 48.4828 60.6598C48.7971 60.534 49.0484 60.1409 49.2212 59.8106C49.7083 58.8986 50.3917 58.2381 51.405 57.9708C51.7585 57.8764 52.1434 57.9 52.6383 57.8607C52.1277 59.4332 50.9258 59.9286 49.7083 60.4554C50.8551 60.6126 51.9627 60.6912 53.0311 60.1094C54.7514 59.1738 56.5738 59.4175 58.3884 59.7163C58.4355 59.7163 58.4669 59.8106 58.4983 59.8657C58.4983 59.8971 58.4983 59.9443 58.4826 59.9522C56.8723 60.6205 55.3798 61.6662 53.5181 61.4932C53.1017 61.4539 52.6697 61.3832 52.2769 61.2259C50.753 60.6283 49.2527 60.7148 47.823 61.4539C47.2103 61.7684 46.6997 62.3109 46.1969 62.8299C46.794 63.0264 47.2731 62.8141 47.768 62.594C48.7578 62.1537 49.779 61.965 50.808 62.4053C51.2086 62.5783 51.5543 62.8692 51.9235 63.1051C51.8292 63.278 51.7978 63.3724 51.7742 63.3724C50.376 63.396 48.9699 63.4982 47.5795 63.4038C46.1969 63.3095 44.948 63.6476 43.6833 64.2294C45.1208 64.6225 46.6918 64.6854 47.7994 65.9041C46.8568 66.4781 45.6785 66.4073 44.7673 65.7312C44.5316 65.5582 44.3117 65.3537 44.1153 65.1415C43.5497 64.536 42.8899 64.3395 42.0729 64.5125C41.0439 64.7247 39.9991 64.8741 38.9465 65.1886C40.5883 65.3538 42.3871 64.9449 43.5654 66.8005C43.2591 66.8162 43.0784 66.8634 42.9134 66.8319C41.3424 66.5253 39.7478 66.3051 38.3652 65.3931C38.0903 65.2122 37.6818 65.1965 37.3362 65.2044C36.7235 65.2201 36.1029 65.3223 35.2545 65.4166C35.9615 65.7312 36.5192 65.8805 36.9591 66.195C37.399 66.5096 37.7604 66.9499 38.0824 67.3902C38.4202 67.8619 38.6559 68.3966 38.9387 68.9076C38.8915 68.9705 38.8523 69.0334 38.8051 69.0885C38.3967 68.884 37.9253 68.7582 37.5797 68.4673C36.9041 67.9091 36.2443 67.3115 35.6866 66.6354C35.0267 65.8334 34.2962 65.456 33.2279 65.5739C30.6592 65.857 28.0827 66.0457 25.4904 65.8019C25.1762 65.7705 24.862 65.8019 24.5007 65.9434C24.8149 66.0771 25.1291 66.2265 25.4511 66.3523C26.0639 66.5882 26.6687 66.8005 26.9594 67.4924C27.0301 67.6653 27.36 67.7676 27.5956 67.8462C28.4126 68.0978 28.8211 68.7189 28.5775 69.3558C28.334 69.9769 27.5564 70.2993 26.9436 70.0241C26.2367 69.7175 26.0403 69.0963 26.3938 68.3101C26.6766 67.6811 26.5744 67.2565 25.9617 66.9577C25.1526 66.5567 24.32 66.2265 23.3852 66.0142C23.6994 66.2422 24.0215 66.4624 24.3357 66.6983C24.8463 67.0914 24.9877 67.7282 24.6892 68.2708C24.3907 68.8133 23.7308 69.0334 23.1653 68.7897C22.6468 68.5617 22.309 67.9327 22.5211 67.4137C22.6547 67.0678 22.9532 66.7847 23.1967 66.4388C22.906 65.9041 22.5211 65.4324 21.8691 65.2751C19.7953 64.7876 17.7844 64.1036 15.8441 63.2151C15.7656 63.1758 15.6635 63.1758 15.4906 63.2151C16.6061 64.5596 17.9493 65.7547 18.3892 67.5553C17.3523 67.2408 16.5197 66.6825 16.0091 65.7233C15.7656 65.2673 15.5613 64.7641 15.4435 64.2609C15.2157 63.3173 14.6501 62.7198 13.786 62.3345C13.0712 62.02 12.3642 61.6662 11.6573 61.3203C11.343 61.1709 11.0445 60.99 10.7382 60.8249C10.7539 60.762 10.7775 60.6991 10.7932 60.6362C10.9817 60.6677 11.1859 60.6598 11.3509 60.7384C12.1286 61.0844 12.8984 61.4461 13.6604 61.8156C15.0979 62.5154 16.1191 62.3188 17.156 61.1237C17.8237 60.361 18.4285 59.5197 19.4576 59.1974C19.7796 59.0951 20.1174 59.0637 20.6437 58.9615C19.5832 61.1866 17.7844 61.9964 15.6242 62.5232C16.1976 63.0657 16.8025 63.2859 17.3838 63.2544C18.6249 63.1994 19.8425 63.0343 20.8008 62.0357C21.6727 61.1237 22.7803 60.5497 24.0608 60.3689C24.1864 60.3532 24.32 60.3374 24.4535 60.3532C24.5085 60.3532 24.5556 60.4239 24.6735 60.5183L24.6813 60.534ZM52.5754 60.8406C54.3586 61.5404 55.7097 60.707 57.0844 60.0072C55.6154 60.2116 54.0522 59.8028 52.5754 60.8406ZM23.6916 68.4595C24.045 68.4437 24.4221 68.0349 24.3828 67.6496C24.3435 67.2565 24.1315 66.9734 23.6994 66.9656C23.3066 66.9577 22.9453 67.3351 22.9453 67.7204C22.9453 68.1292 23.2909 68.4752 23.6916 68.4595ZM32.3481 62.6176C31.6804 62.6805 31.4447 62.9793 31.4212 63.4117C31.3976 63.8363 31.6804 64.0722 32.081 64.1036C32.4973 64.1351 32.9686 63.679 32.8508 63.2938C32.7566 63.0107 32.4738 62.7827 32.3402 62.6097L32.3481 62.6176ZM28.1848 68.9784C28.2005 68.6246 27.8234 68.2157 27.4542 68.1921C27.0929 68.1686 26.6844 68.5381 26.6687 68.9076C26.653 69.3008 26.9908 69.6546 27.3914 69.6782C27.792 69.6939 28.1691 69.3637 28.1848 68.9863V68.9784ZM27.5092 63.2623C27.4699 62.8692 27.25 62.6333 26.8258 62.6097C26.3781 62.5861 26.0717 62.8613 26.0717 63.3095C26.0717 63.7419 26.2838 63.9857 26.7237 63.9935C27.1322 64.0093 27.5014 63.6712 27.5171 63.2623H27.5092ZM37.9175 68.0821C37.5876 67.1464 37.0848 66.4073 35.9065 66.1715C36.4014 67.1307 37.0691 67.6968 37.9175 68.0821ZM46.8725 65.7783C46.2127 65.1022 45.5135 64.9999 44.6337 65.0392C45.2857 65.7233 45.9377 65.9592 46.8725 65.7783ZM37.6583 62.9242C37.5954 62.8456 37.5247 62.767 37.4619 62.6805C36.6763 62.8613 36.2522 63.4117 35.9379 64.08C35.9929 64.1429 36.0479 64.2058 36.1108 64.2687C36.6292 63.8205 37.1477 63.3724 37.6583 62.9242Z" fill="black"/>
<path d="M6.83408 52.9387C7.67198 52.4146 7.89978 51.6676 7.51749 50.6979C7.0357 49.4766 6.14805 48.8633 4.85455 48.8581C3.74957 48.8581 2.99546 49.3665 2.59223 50.3834C2.54509 50.5092 2.49011 50.6271 2.44298 50.7451C2.07116 51.6781 2.29634 52.3884 3.11853 52.8758C2.52153 53.2061 0.730523 53.2454 -0.00787354 52.9387C0.00783703 52.8758 0.00783703 52.7736 0.0314029 52.7658C1.03688 52.4198 1.42179 51.6178 1.75957 50.6743C2.74933 47.9381 3.81765 45.2334 4.87026 42.5208C4.98023 42.2299 5.15305 41.9626 5.41227 41.4673C5.68721 41.9547 5.89145 42.2299 6.00928 42.5366C7.06188 45.2806 8.09878 48.0404 9.14353 50.7844C9.26922 51.1225 9.3949 51.4606 9.55986 51.7751C9.92906 52.467 10.4161 52.7029 11.1781 52.6007C11.7986 52.5142 12.0343 52.2861 12.0578 51.6414C12.0814 50.9574 12.0578 50.2655 12.0578 49.5814C12.0578 47.6472 12.0264 45.7209 12.0736 43.7867C12.0971 42.8746 12.0893 42.0648 10.8717 41.8368C11.6258 41.4122 12.4192 41.4594 13.2754 41.2235C13.299 41.6717 13.3383 42.0176 13.3383 42.3636C13.3383 45.2727 13.3383 48.1897 13.3383 51.0989C13.3383 52.2704 13.3854 52.3491 14.5401 52.8051C14.383 52.9387 14.2652 53.1117 14.1474 53.1117C11.83 53.1196 9.50488 53.1117 7.18757 53.1039C7.07759 53.1039 6.96762 53.0016 6.82622 52.9309L6.83408 52.9387ZM3.45631 48.1583C4.54034 48.174 5.44369 48.2762 6.50416 48.0482C5.99356 46.7116 5.5301 45.4929 5.0745 44.2742C5.0038 44.2821 4.94096 44.2978 4.87026 44.3056C4.42251 45.5401 3.9669 46.7745 3.46416 48.1662L3.45631 48.1583Z" fill="black"/>
<path d="M54.2957 44.2269C54.1936 43.9989 54.0679 43.7788 53.9894 43.5429C53.7537 42.7802 53.2431 42.4264 52.4576 42.4343C51.5778 42.4421 50.698 42.4343 49.6611 42.4343C49.6061 43.9282 49.614 45.3434 49.669 46.9002C50.5409 46.9002 51.3421 46.9395 52.1434 46.8766C52.3712 46.8609 52.6147 46.5778 52.7797 46.3577C52.9211 46.169 52.9603 45.8938 53.0546 45.6186C53.4552 46.1375 53.5102 48.0167 53.1646 49.0781C53.0389 48.858 52.9289 48.7243 52.8818 48.5671C52.6147 47.7336 52.5204 47.6472 51.6485 47.6236C51.0358 47.6078 50.4152 47.6236 49.6611 47.6236C49.6611 49.0467 49.6297 50.3755 49.6768 51.7042C49.6925 52.2625 50.1796 52.4512 50.6666 52.4669C51.4521 52.4905 52.2376 52.4826 53.0232 52.4512C53.9344 52.4197 54.4528 51.9008 54.6649 51.0359C54.7356 50.7607 54.8456 50.5013 55.0577 50.2575C55.2933 51.1696 55.0891 52.0502 54.9477 53.0173H46.7075C46.8725 52.8286 46.9275 52.7185 46.9903 52.7028C48.0272 52.5377 48.2236 51.8694 48.2 50.9258C48.1529 48.7322 48.1843 46.5385 48.1922 44.3449C48.1922 42.7252 48.2 42.7252 46.9039 41.9468C49.4097 41.8839 51.9156 41.7188 54.4921 41.876V44.1876C54.4293 44.1955 54.3586 44.2112 54.2957 44.2191V44.2269Z" fill="black"/>
<path d="M25.8046 53.2533C25.7025 52.8837 25.6318 52.64 25.5532 52.3648C25.4668 52.3805 25.3647 52.3648 25.3019 52.4198C24.7049 52.9073 24.045 53.2297 23.2595 53.2769C21.9791 53.3476 21.0207 52.6085 20.8715 51.3348C20.7772 50.4935 20.8008 49.6365 20.7851 48.7873C20.7772 48.4256 20.7851 48.0718 20.7851 47.7102C20.7851 46.916 20.9186 46.0354 19.5675 46.0747C20.0702 45.6895 21.6177 45.5165 21.8691 45.7681C22.0262 45.9253 22.1126 46.2241 22.1126 46.46C22.1362 47.5057 22.1126 48.5514 22.1126 49.5972C22.1126 49.9588 22.1126 50.3127 22.1126 50.6743C22.1283 51.3977 22.2854 52.0581 23.0631 52.3333C23.8094 52.6007 24.9327 52.2862 25.3647 51.6414C25.514 51.4213 25.5689 51.0989 25.5768 50.8159C25.6004 49.8016 25.5532 48.7873 25.6004 47.773C25.6396 46.8924 25.6004 46.1219 24.4456 45.9096C25.1997 45.5322 25.946 45.6895 26.7865 45.7052C26.8179 46.0433 26.8651 46.3578 26.8651 46.6644C26.8729 47.9696 26.8729 49.2827 26.8729 50.5878C26.8729 51.5418 27.305 52.2521 28.169 52.7186C27.3757 53.1117 26.5901 52.9938 25.7889 53.2297L25.8046 53.2533Z" fill="black"/>
<path d="M69.425 52.467C68.718 53.5127 67.7126 53.442 66.8642 52.3333C66.2672 52.6164 65.7095 52.9624 65.1046 53.1511C64.2012 53.4341 63.1015 52.9073 62.7794 52.1525C62.4574 51.4056 62.6302 50.4856 63.3529 50.0768C64.2248 49.5814 65.1832 49.2355 66.1101 48.8581C66.9113 48.5357 67.092 48.1426 66.8485 47.0497C66.6678 46.2241 66.1651 45.8153 65.411 45.8939C64.8454 45.9568 64.4133 46.2005 64.3191 46.8217C64.2955 46.9789 64.2562 47.1441 64.2012 47.3013C64.0284 47.836 63.6749 48.0482 63.2665 47.8517C62.8187 47.6315 62.803 47.2305 62.9601 46.8453C63.0701 46.5858 63.2822 46.3499 63.5021 46.1612C64.4212 45.3514 66.1258 45.1784 67.1863 45.7996C67.9639 46.2556 68.2624 46.9947 68.2703 47.8595C68.286 48.9053 68.2624 49.951 68.2703 50.9967C68.2703 52.239 68.2781 52.239 69.4172 52.4592L69.425 52.467ZM66.8485 49.1254C66.0629 49.4556 65.4502 49.6679 64.8847 49.9589C64.3112 50.2498 64.052 50.7687 64.1148 51.4292C64.162 51.9088 64.4212 52.2154 64.8847 52.3333C65.5209 52.4906 66.0629 52.3019 66.4636 51.7987C66.6364 51.5785 66.8092 51.2955 66.8406 51.0282C66.8956 50.4856 66.8563 49.9274 66.8563 49.1333L66.8485 49.1254Z" fill="black"/>
<path d="M41.2245 48.8267H36.4878C36.315 50.1476 36.5114 51.2405 37.5011 51.9324C38.8444 52.868 40.0934 52.3413 41.3031 51.3977C41.256 51.555 41.256 51.7437 41.1617 51.8695C39.7163 53.8823 36.7156 53.6857 35.4116 51.5157C34.3119 49.6837 34.9796 46.1613 37.8703 45.5559C40.2976 45.0448 41.8373 47.1598 41.2167 48.8267H41.2245ZM39.8263 48.1426C40.062 47.0104 39.5906 46.1141 38.7344 45.9647C37.6347 45.7839 36.747 46.6566 36.5978 48.1426H39.8263Z" fill="black"/>
<path d="M18.8527 53.0331H15.3256C15.3885 52.8601 15.3963 52.7658 15.4278 52.7579C16.3076 52.5771 16.4725 52.011 16.4568 51.1775C16.4097 48.7323 16.449 46.2791 16.4568 43.8339C16.4568 42.4579 16.4647 42.4579 15.2707 41.7267C16.1112 41.538 16.8103 41.3729 17.643 41.1842C17.6979 41.6402 17.7765 42.0098 17.7765 42.3715C17.7844 45.2098 17.8001 48.0561 17.7765 50.8945C17.7765 51.783 17.7294 52.6321 18.9626 52.8208L18.8448 53.0331H18.8527Z" fill="black"/>
<path d="M56.2753 52.8051C57.7363 52.5378 57.54 51.5471 57.5164 50.6036C57.4928 49.6916 57.5007 48.7716 57.5321 47.8596C57.5714 46.6566 57.54 46.578 56.3695 46.0669C57.0843 45.5794 57.8777 45.7446 58.624 45.4694C58.734 45.8389 58.8204 46.1377 58.8832 46.3578C59.4095 46.0826 59.9201 45.721 60.4857 45.548C60.847 45.4379 61.3341 45.5401 61.6875 45.7052C62.096 45.8939 62.1353 46.3578 61.9232 46.7274C61.6875 47.1362 61.3105 47.1441 60.9099 46.9082C59.6452 46.1613 58.8989 46.5544 58.8361 48.0326C58.7889 49.0783 58.8125 50.124 58.8204 51.1697C58.8204 52.2469 58.8361 52.239 59.8573 52.6086C59.9594 52.6479 60.0458 52.7422 60.1793 52.8366C59.3781 53.1118 57.21 53.1118 56.2674 52.7973L56.2753 52.8051Z" fill="black"/>
<path d="M32.6858 53.0489C31.4369 53.2061 30.1879 53.1432 28.9153 53.0646C28.9546 52.8759 28.9546 52.7658 28.9781 52.758C30.015 52.5457 30.1564 51.8223 30.0936 50.9181C30.0386 50.0375 30.0779 49.1569 30.0779 48.2684C30.0779 47.2777 29.6406 46.5491 28.7661 46.0826C29.583 45.7445 30.345 45.7524 31.1148 45.5952C31.2169 45.9175 31.2955 46.1848 31.4054 46.5465C31.6332 46.35 31.8296 46.1534 32.0496 46.004C32.6387 45.6109 33.2671 45.3357 33.9741 45.6581C34.4376 45.8625 34.6104 46.4129 34.3826 46.806C34.1548 47.1913 33.762 47.2384 33.2828 46.9318C32.3088 46.3106 31.4761 46.6566 31.3976 47.8124C31.3033 49.1097 31.3504 50.4228 31.3504 51.7358C31.3504 52.1683 31.5547 52.4749 32.0181 52.5771C32.2538 52.6322 32.4737 52.7422 32.7094 52.8209C32.7016 52.8995 32.6858 52.9702 32.678 53.0489H32.6858Z" fill="black"/>
<path d="M29.6459 66.36C30.0936 66.36 30.5335 66.7846 30.5257 67.217C30.5178 67.6494 30.0622 68.0426 29.5987 68.0268C29.1745 68.0033 28.8053 67.6416 28.7818 67.217C28.7582 66.7767 29.1745 66.3678 29.6459 66.36Z" fill="black"/>
</g>
<defs>
<clipPath id="clip0_389_265">
<rect width="69.425" height="70.1263" fill="white"/>
</clipPath>
</defs>
</svg>
