<svg width="98" height="100" viewBox="0 0 98 100" fill="none" xmlns="http://www.w3.org/2000/svg">
<g clip-path="url(#clip0_30_46)">
<path d="M49.5191 28.492H48.4744C48.3723 29.4984 48.2702 30.4655 48.168 31.4326C47.8617 34.6012 47.681 37.7698 48.4273 40.907C48.8986 42.8962 49.8962 44.4608 51.8757 45.2471C52.0407 45.31 52.1742 45.4515 52.2685 45.656C51.0981 45.538 49.9826 45.2943 49.0478 44.5159C47.4296 43.1635 46.6755 41.3394 46.2671 39.3423C46.0314 38.1944 45.8979 37.0307 45.5758 35.7884C45.3873 36.1737 45.1909 36.5511 45.0102 36.9364C43.8476 39.4209 42.4023 41.7247 40.3128 43.5252C36.4165 46.8825 31.9861 48.2192 26.9195 46.7567C25.427 46.3243 24.0445 45.6324 23.039 44.3901C21.248 42.1886 21.0594 39.2165 22.4577 36.559C23.4867 34.609 25.0578 33.2174 26.8566 32.038C29.9752 30.0016 33.4472 28.8536 37.0842 28.2246C39.5586 27.7922 42.0723 27.5799 44.5703 27.2654C44.8217 27.2339 45.0809 27.1946 45.3087 27.1632C46.1728 24.0417 44.3896 20.2048 41.546 18.821C39.5744 17.8618 37.4691 17.5787 35.3561 17.5237C31.232 17.4136 27.1787 17.8775 23.4239 19.7331C22.5284 20.1734 21.735 20.8338 20.9416 21.455C20.6195 21.7066 20.3917 22.1076 20.2111 22.485C19.6612 23.6014 20.0697 24.6786 21.2323 25.1268C21.7664 25.3312 22.3556 25.402 22.9211 25.5356C21.5465 26.1725 19.1428 25.4963 18.3258 24.2619C17.7995 23.4599 17.8545 22.6579 18.2708 21.8402C18.8128 20.7709 19.7319 20.0947 20.7295 19.505C23.361 17.964 26.2518 17.107 29.2368 16.6431C31.1378 16.3443 33.0702 16.1399 34.9947 16.1005C37.8776 16.0376 40.7448 16.2499 43.447 17.445C46.652 18.8603 48.2702 21.3292 48.4508 24.7887C48.4744 25.2762 48.4508 25.7715 48.4744 26.259C48.4901 26.6364 48.3801 27.0846 48.9693 27.1553C49.5349 27.2182 49.7784 27.0138 49.9669 26.3533C50.1947 25.5356 50.4146 24.7101 50.7131 23.9159C52.402 19.4343 55.6934 16.7296 60.2259 15.4715C62.6296 14.8032 65.0805 14.7167 67.492 15.4322C68.4818 15.7231 69.4559 16.1713 70.3278 16.7296C72.056 17.8382 72.5116 19.678 71.6475 21.5414C70.8698 23.2319 69.4716 24.2776 67.9005 25.1504C64.782 26.8801 61.3806 27.6349 57.8772 28.0202C56.5496 28.1696 55.2064 28.2089 53.8631 28.2954C53.4154 28.319 53.0226 28.3347 52.9833 28.948C52.7555 33.1781 53.2583 37.2509 55.442 40.9777C58.4977 46.2063 64.1693 47.3464 69.0317 44.909C70.5085 44.1699 71.8517 43.1399 73.2421 42.22C74.2869 41.5281 75.3395 40.8362 76.5963 40.6711C77.319 40.5767 78.081 40.7025 78.8036 40.8126C79.0472 40.8519 79.3064 41.1271 79.4399 41.363C79.652 41.7247 79.4399 42.0785 79.0236 42.165C78.8979 42.1886 78.7565 42.1964 78.6308 42.1807C76.6356 41.8505 75.0017 42.7311 73.3992 43.7296C71.0583 45.1921 68.6468 46.513 65.8738 46.9533C59.786 47.9204 54.5308 45.4437 51.6793 39.9949C49.9355 36.6612 49.2756 33.0994 49.4956 29.3568C49.5113 29.0974 49.4956 28.8458 49.4956 28.4684L49.5191 28.492ZM45.3794 28.5313C43.3449 28.7278 41.5853 28.8379 39.8414 29.0738C36.3144 29.5534 32.9052 30.4419 29.8495 32.3446C27.2573 33.9564 25.3092 36.0715 24.775 39.2244C24.2094 42.5738 25.9769 45.2235 29.2996 45.9076C30.7921 46.2142 32.2925 46.1434 33.7693 45.7582C36.3537 45.082 38.4589 43.651 40.2028 41.6539C42.8343 38.6425 44.3347 35.0887 45.0495 31.1888C45.1909 30.4026 45.2459 29.6006 45.3716 28.5391L45.3794 28.5313ZM53.2975 27.0059C53.5803 27.0295 53.8631 27.0846 54.1459 27.0767C57.3901 26.9902 60.6187 26.7465 63.7294 25.7086C65.701 25.0482 67.5942 24.2304 68.9845 22.6029C70.9876 20.252 70.2571 17.7202 67.3428 16.7767C67.2485 16.7453 67.1543 16.7138 67.06 16.6902C60.438 14.9683 54.0988 18.9704 53.2975 27.0059Z" fill="black"/>
<path d="M38.8281 75.4706C37.2728 77.7272 34.7355 77.9316 32.4182 78.5685C33.3137 79.1582 36.558 80.1331 37.5713 79.9759C38.1919 79.8815 38.7967 79.5513 39.3466 79.2211C39.5508 79.0953 39.6294 78.6707 39.6608 78.3719C39.7158 77.8373 39.92 77.4048 40.4071 77.1925C40.8941 76.9803 41.3811 77.0667 41.766 77.452C42.0881 77.7744 42.2059 78.1754 42.0174 78.6235C41.7974 79.1425 41.3418 79.4648 40.8548 79.3312C39.9279 79.0717 39.4016 79.6457 38.7653 80.2354C39.1973 80.2668 39.6294 80.3061 40.0614 80.3218C40.4856 80.3454 40.9255 80.2747 41.334 80.369C42.6222 80.6521 43.6042 80.0073 44.6096 79.3783C44.9945 79.1425 45.026 78.7729 45.0888 78.3719C45.2459 77.2869 46.1885 76.823 47.0055 77.4048C47.3825 77.6722 47.6339 78.0731 47.4611 78.4977C47.3276 78.8201 46.9898 79.0638 46.707 79.3076C46.6049 79.3941 46.3928 79.3705 46.2278 79.3705C45.5156 79.3862 44.8165 79.6588 44.1305 80.1882C45.0574 80.1882 45.945 80.196 46.8405 80.1882C47.1312 80.1882 47.4218 80.0938 47.7203 80.0938C48.6865 80.0938 49.3385 79.7636 49.802 78.8122C50.1083 78.1832 50.7839 77.7115 51.3652 77.2554C51.6008 77.0667 52.0172 77.1139 52.4963 77.0196C52.1586 78.5292 50.9803 79.0009 50.0455 79.8422C50.4068 79.8265 50.7682 79.8344 51.1217 79.7872C51.7422 79.7164 52.3471 79.5749 52.9677 79.5356C53.7768 79.4884 54.1774 79.0638 54.4602 78.3483C54.6958 77.7429 54.9865 77.1375 55.3792 76.6343C55.7013 76.2254 56.204 75.966 56.7382 75.738C56.8246 77.3891 55.6385 78.2304 54.5937 79.1503C54.633 79.2132 54.6644 79.284 54.7037 79.3469C55.7327 79.0953 56.7775 78.883 57.7829 78.5606C58.0579 78.4741 58.3014 78.0732 58.4271 77.7586C58.6313 77.2476 58.702 76.6815 58.8513 76.1547C59.1812 74.9989 59.9353 74.2834 61.255 73.8903C61.0429 75.8245 59.4875 76.7208 58.7806 78.2225C59.1341 78.0102 59.5347 77.8451 59.841 77.5699C60.6894 76.7994 61.5378 76.0446 62.6297 75.5964C62.9439 75.4706 63.1952 75.0775 63.3681 74.7473C63.8551 73.8352 64.5385 73.1748 65.5518 72.9074C65.9053 72.8131 66.2902 72.8367 66.7851 72.7974C66.2745 74.3699 65.0727 74.8652 63.8551 75.392C65.002 75.5493 66.1096 75.6279 67.1779 75.0461C68.8982 74.1104 70.7206 74.3542 72.5352 74.6529C72.5823 74.6529 72.6137 74.7473 72.6451 74.8023C72.6451 74.8338 72.6451 74.8809 72.6294 74.8888C71.0191 75.5571 69.5266 76.6028 67.6649 76.4299C67.2486 76.3906 66.8165 76.3198 66.4238 76.1625C64.8998 75.565 63.3995 75.6515 61.9698 76.3906C61.3571 76.7051 60.8465 77.2476 60.3438 77.7665C60.9408 77.9631 61.4199 77.7508 61.9148 77.5306C62.9046 77.0903 63.9258 76.9016 64.9548 77.3419C65.3554 77.5149 65.7011 77.8058 66.0703 78.0417C65.976 78.2147 65.9446 78.309 65.921 78.309C64.5228 78.3326 63.1167 78.4348 61.7263 78.3405C60.3438 78.2461 59.0948 78.5842 57.8301 79.1661C59.2676 79.5592 60.8387 79.6221 61.9463 80.8408C61.0036 81.4147 59.8253 81.344 58.9141 80.6678C58.6784 80.4948 58.4585 80.2904 58.2621 80.0781C57.6965 79.4727 57.0367 79.2761 56.2197 79.4491C55.1907 79.6614 54.146 79.8108 53.0933 80.1253C54.7351 80.2904 56.534 79.8815 57.7122 81.7371C57.4059 81.7528 57.2252 81.8 57.0603 81.7686C55.4892 81.4619 53.8946 81.2418 52.512 80.3297C52.2371 80.1489 51.8286 80.1331 51.483 80.141C50.8703 80.1567 50.2497 80.2589 49.4014 80.3533C50.1083 80.6678 50.6661 80.8172 51.106 81.1317C51.5458 81.4462 51.9072 81.8865 52.2293 82.3268C52.567 82.7986 52.8027 83.3332 53.0855 83.8443C53.0384 83.9072 52.9991 83.9701 52.9519 84.0251C52.5435 83.8207 52.0722 83.6949 51.7265 83.404C51.051 82.8457 50.3911 82.2482 49.8334 81.572C49.1736 80.77 48.443 80.3926 47.3747 80.5105C44.806 80.7936 42.2295 80.9823 39.6372 80.7386C39.323 80.7071 39.0088 80.7386 38.6475 80.8801C38.9617 81.0138 39.2759 81.1631 39.598 81.2889C40.2107 81.5248 40.8155 81.7371 41.1062 82.429C41.1769 82.602 41.5068 82.7042 41.7425 82.7828C42.5594 83.0344 42.9679 83.6556 42.7244 84.2924C42.4809 84.9136 41.7032 85.236 41.0905 84.9608C40.3835 84.6541 40.1871 84.033 40.5406 83.2467C40.8234 82.6177 40.7213 82.1931 40.1086 81.8944C39.2995 81.4934 38.4668 81.1631 37.532 80.9509C37.8462 81.1789 38.1683 81.399 38.4825 81.6349C38.9931 82.028 39.1345 82.6649 38.836 83.2074C38.5375 83.7499 37.8777 83.9701 37.3121 83.7263C36.7936 83.4983 36.4558 82.8693 36.6679 82.3504C36.8015 82.0044 37.1 81.7214 37.3435 81.3754C37.0528 80.8408 36.6679 80.369 36.016 80.2118C33.9422 79.7243 31.9312 79.0402 29.9909 78.1518C29.9124 78.1125 29.8103 78.1125 29.6375 78.1518C30.7529 79.4963 32.0962 80.6914 32.5361 82.4919C31.4992 82.1774 30.6665 81.6192 30.1559 80.6599C29.9124 80.2039 29.7082 79.7007 29.5903 79.1975C29.3625 78.254 28.7969 77.6564 27.9329 77.2712C27.218 76.9567 26.5111 76.6028 25.8041 76.2569C25.4899 76.1075 25.1914 75.9267 24.885 75.7616C24.9007 75.6987 24.9243 75.6358 24.94 75.5729C25.1285 75.6043 25.3328 75.5964 25.4977 75.6751C26.2754 76.021 27.0452 76.3827 27.8072 76.7522C29.2447 77.452 30.2659 77.2554 31.3028 76.0603C31.9705 75.2977 32.5753 74.4564 33.6044 74.134C33.9264 74.0318 34.2642 74.0003 34.7905 73.8981C33.7301 76.1232 31.9312 76.9331 29.771 77.4599C30.3444 78.0024 30.9493 78.2225 31.5306 78.1911C32.7717 78.136 33.9893 77.9709 34.9476 76.9724C35.8196 76.0603 36.9272 75.4864 38.2076 75.3055C38.3333 75.2898 38.4668 75.2741 38.6003 75.2898C38.6553 75.2898 38.7025 75.3606 38.8203 75.4549L38.8281 75.4706ZM66.7223 75.7773C68.5054 76.477 69.8565 75.6436 71.2312 74.9438C69.7623 75.1483 68.1991 74.7394 66.7223 75.7773ZM37.8384 83.3961C38.1919 83.3804 38.5689 82.9715 38.5296 82.5863C38.4904 82.1931 38.2783 81.9101 37.8462 81.9022C37.4535 81.8944 37.0921 82.2718 37.0921 82.657C37.0921 83.0659 37.4378 83.4118 37.8384 83.3961ZM46.4949 77.5542C45.8272 77.6171 45.5915 77.9159 45.568 78.3483C45.5444 78.7729 45.8272 79.0088 46.2278 79.0402C46.6442 79.0717 47.1155 78.6157 46.9976 78.2304C46.9034 77.9474 46.6206 77.7193 46.487 77.5464L46.4949 77.5542ZM42.3316 83.915C42.3473 83.5612 41.9703 83.1524 41.6011 83.1288C41.2397 83.1052 40.8312 83.4747 40.8155 83.8443C40.7998 84.2374 41.1376 84.5912 41.5382 84.6148C41.9388 84.6305 42.3159 84.3003 42.3316 83.9229V83.915ZM41.656 78.199C41.6168 77.8058 41.3968 77.5699 40.9726 77.5464C40.5249 77.5228 40.2185 77.798 40.2185 78.2461C40.2185 78.6786 40.4306 78.9223 40.8705 78.9302C41.279 78.9459 41.6482 78.6078 41.6639 78.199H41.656ZM52.0643 83.0187C51.7344 82.0831 51.2316 81.344 50.0533 81.1081C50.5482 82.0673 51.2159 82.6334 52.0643 83.0187ZM61.0193 80.715C60.3595 80.0388 59.6604 79.9366 58.7806 79.9759C59.4326 80.6599 60.0845 80.8958 61.0193 80.715ZM51.8051 77.8609C51.7422 77.7822 51.6715 77.7036 51.6087 77.6171C50.8232 77.798 50.399 78.3483 50.0848 79.0167C50.1398 79.0796 50.1947 79.1425 50.2576 79.2054C50.776 78.7572 51.2945 78.309 51.8051 77.8609Z" fill="black"/>
<path d="M20.9809 67.8754C21.8188 67.3512 22.0466 66.6043 21.6643 65.6346C21.1825 64.4132 20.2948 63.8 19.0013 63.7947C17.8964 63.7947 17.1423 64.3032 16.739 65.3201C16.6919 65.4459 16.6369 65.5638 16.5898 65.6817C16.2179 66.6148 16.4431 67.325 17.2653 67.8125C16.6683 68.1427 14.8773 68.182 14.1389 67.8754C14.1546 67.8125 14.1546 67.7103 14.1782 67.7024C15.1837 67.3565 15.5686 66.5545 15.9064 65.611C16.8961 62.8748 17.9644 60.1701 19.017 57.4575C19.127 57.1666 19.2998 56.8992 19.5591 56.4039C19.834 56.8914 20.0382 57.1666 20.1561 57.4732C21.2087 60.2172 22.2456 62.977 23.2903 65.721C23.416 66.0591 23.5417 66.3972 23.7067 66.7117C24.0759 67.4036 24.5629 67.6395 25.3248 67.5373C25.9454 67.4508 26.1811 67.2228 26.2046 66.5781C26.2282 65.894 26.2046 65.2021 26.2046 64.5181C26.2046 62.5839 26.1732 60.6575 26.2203 58.7234C26.2439 57.8113 26.2361 57.0015 25.0185 56.7734C25.7726 56.3489 26.566 56.396 27.4222 56.1602C27.4458 56.6083 27.485 56.9543 27.485 57.3002C27.485 60.2094 27.485 63.1264 27.485 66.0355C27.485 67.2071 27.5322 67.2857 28.6869 67.7417C28.5298 67.8754 28.412 68.0484 28.2941 68.0484C25.9768 68.0562 23.6517 68.0484 21.3344 68.0405C21.2244 68.0405 21.1144 67.9383 20.973 67.8675L20.9809 67.8754ZM17.6031 63.0949C18.6871 63.1107 19.5905 63.2129 20.6509 62.9849C20.1404 61.6482 19.6769 60.4295 19.2213 59.2108C19.1506 59.2187 19.0877 59.2344 19.017 59.2423C18.5693 60.4767 18.1137 61.7111 17.611 63.1028L17.6031 63.0949Z" fill="black"/>
<path d="M68.4425 59.1637C68.3403 58.9357 68.2147 58.7155 68.1361 58.4797C67.9004 57.717 67.3898 57.3632 66.6043 57.371C65.7245 57.3789 64.8447 57.371 63.8078 57.371C63.7529 58.8649 63.7607 60.2802 63.8157 61.837C64.6876 61.837 65.4889 61.8763 66.2901 61.8134C66.5179 61.7977 66.7614 61.5146 66.9264 61.2945C67.0678 61.1058 67.1071 60.8306 67.2013 60.5554C67.6019 61.0743 67.6569 62.9535 67.3113 64.0149C67.1856 63.7948 67.0756 63.6611 67.0285 63.5038C66.7614 62.6704 66.6672 62.5839 65.7952 62.5603C65.1825 62.5446 64.5619 62.5603 63.8078 62.5603C63.8078 63.9835 63.7764 65.3122 63.8235 66.641C63.8393 67.1993 64.3263 67.388 64.8133 67.4037C65.5988 67.4273 66.3844 67.4194 67.1699 67.388C68.0811 67.3565 68.5996 66.8376 68.8116 65.9727C68.8823 65.6975 68.9923 65.438 69.2044 65.1943C69.4401 66.1064 69.2358 66.987 69.0944 67.9541H60.8542C61.0192 67.7654 61.0742 67.6553 61.137 67.6396C62.1739 67.4744 62.3703 66.8061 62.3468 65.8626C62.2996 63.669 62.331 61.4753 62.3389 59.2816C62.3389 57.662 62.3468 57.662 61.0506 56.8836C63.5565 56.8207 66.0623 56.6555 68.6388 56.8128V59.1244C68.576 59.1323 68.5053 59.148 68.4425 59.1558V59.1637Z" fill="black"/>
<path d="M39.9515 68.1899C39.8493 67.8204 39.7786 67.5766 39.7001 67.3014C39.6137 67.3172 39.5116 67.3014 39.4487 67.3565C38.8517 67.844 38.1919 68.1663 37.4063 68.2135C36.1259 68.2843 35.1676 67.5452 35.0183 66.2714C34.9241 65.4301 34.9476 64.5731 34.9319 63.724C34.9241 63.3623 34.9319 63.0085 34.9319 62.6468C34.9319 61.8527 35.0655 60.9721 33.7144 61.0114C34.2171 60.6261 35.7646 60.4531 36.016 60.7047C36.1731 60.862 36.2595 61.1608 36.2595 61.3966C36.283 62.4424 36.2595 63.4881 36.2595 64.5338C36.2595 64.8955 36.2595 65.2493 36.2595 65.611C36.2752 66.3343 36.4323 66.9948 37.21 67.27C37.9562 67.5373 39.0795 67.2228 39.5116 66.5781C39.6608 66.3579 39.7158 66.0356 39.7236 65.7525C39.7472 64.7382 39.7001 63.724 39.7472 62.7097C39.7865 61.8291 39.7472 61.0586 38.5925 60.8463C39.3466 60.4689 40.0928 60.6261 40.9334 60.6418C40.9648 60.9799 41.0119 61.2944 41.0119 61.6011C41.0198 62.9063 41.0198 64.2193 41.0198 65.5245C41.0198 66.4785 41.4518 67.1887 42.3159 67.6553C41.5225 68.0484 40.737 67.9304 39.9357 68.1663L39.9515 68.1899Z" fill="black"/>
<path d="M83.5717 67.4037C82.8647 68.4494 81.8592 68.3786 81.0109 67.27C80.4139 67.553 79.8561 67.899 79.2513 68.0877C78.3479 68.3708 77.2482 67.844 76.9261 67.0892C76.604 66.3422 76.7769 65.4223 77.4995 65.0134C78.3715 64.5181 79.3298 64.1721 80.2568 63.7947C81.058 63.4724 81.2387 63.0792 80.9951 61.9863C80.8145 61.1608 80.3117 60.7519 79.5576 60.8305C78.992 60.8935 78.56 61.1372 78.4657 61.7583C78.4422 61.9156 78.4029 62.0807 78.3479 62.238C78.1751 62.7726 77.8216 62.9849 77.4131 62.7883C76.9654 62.5682 76.9497 62.1672 77.1068 61.7819C77.2168 61.5225 77.4288 61.2866 77.6488 61.0979C78.5679 60.288 80.2725 60.1151 81.3329 60.7362C82.1106 61.1922 82.4091 61.9313 82.417 62.7962C82.4327 63.8419 82.4091 64.8876 82.417 65.9334C82.417 67.1756 82.4248 67.1756 83.5638 67.3958L83.5717 67.4037ZM80.9951 64.0621C80.2096 64.3923 79.5969 64.6046 79.0313 64.8955C78.4579 65.1864 78.1987 65.7053 78.2615 66.3658C78.3086 66.8454 78.5679 67.1521 79.0313 67.27C79.6676 67.4272 80.2096 67.2385 80.6102 66.7353C80.7831 66.5152 80.9559 66.2321 80.9873 65.9648C81.0423 65.4223 81.003 64.8641 81.003 64.0699L80.9951 64.0621Z" fill="black"/>
<path d="M55.3713 63.7633H50.6345C50.4617 65.0842 50.6581 66.1771 51.6479 66.869C52.9911 67.8047 54.2401 67.2779 55.4498 66.3344C55.4027 66.4916 55.4027 66.6803 55.3084 66.8061C53.8631 68.819 50.8623 68.6224 49.5584 66.4523C48.4586 64.6203 49.1263 61.0979 52.0171 60.4925C54.4443 59.9814 55.984 62.0965 55.3634 63.7633H55.3713ZM53.973 63.0793C54.2087 61.9471 53.7374 61.0507 52.8811 60.9013C51.7814 60.7205 50.8938 61.5933 50.7445 63.0793H53.973Z" fill="black"/>
<path d="M32.9995 67.9697H29.4725C29.5353 67.7968 29.5432 67.7024 29.5746 67.6946C30.4544 67.5137 30.6193 66.9476 30.6036 66.1142C30.5565 63.6689 30.5958 61.2158 30.6036 58.7705C30.6036 57.3946 30.6115 57.3946 29.4175 56.6634C30.258 56.4747 30.9571 56.3096 31.7898 56.1208C31.8448 56.5769 31.9233 56.9464 31.9233 57.3081C31.9312 60.1465 31.9469 62.9927 31.9233 65.8311C31.9233 66.7196 31.8762 67.5688 33.1095 67.7575L32.9916 67.9697H32.9995Z" fill="black"/>
<path d="M70.4219 67.7418C71.883 67.4745 71.6866 66.4838 71.6631 65.5403C71.6395 64.6282 71.6473 63.7083 71.6788 62.7962C71.718 61.5933 71.6866 61.5146 70.5162 61.0036C71.231 60.5161 72.0244 60.6812 72.7706 60.406C72.8806 60.7755 72.967 61.0743 73.0299 61.2945C73.5562 61.0193 74.0668 60.6576 74.6324 60.4846C74.9937 60.3746 75.4807 60.4768 75.8342 60.6419C76.2427 60.8306 76.282 61.2945 76.0699 61.664C75.8342 62.0729 75.4572 62.0807 75.0565 61.8449C73.7918 61.0979 73.0456 61.491 72.9827 62.9692C72.9356 64.0149 72.9592 65.0606 72.967 66.1064C72.967 67.1835 72.9827 67.1757 74.0039 67.5452C74.106 67.5845 74.1925 67.6789 74.326 67.7732C73.5248 68.0484 71.3567 68.0484 70.4141 67.7339L70.4219 67.7418Z" fill="black"/>
<path d="M46.8326 67.9855C45.5836 68.1428 44.3347 68.0799 43.0621 68.0012C43.1014 67.8125 43.1014 67.7025 43.1249 67.6946C44.1618 67.4823 44.3032 66.759 44.2404 65.8548C44.1854 64.9742 44.2247 64.0935 44.2247 63.2051C44.2247 62.2144 43.7874 61.4858 42.9128 61.0193C43.7298 60.6812 44.4918 60.6891 45.2616 60.5318C45.3637 60.8542 45.4422 61.1215 45.5522 61.4832C45.78 61.2866 45.9764 61.09 46.1964 60.9407C46.7855 60.5475 47.4139 60.2723 48.1209 60.5947C48.5844 60.7991 48.7572 61.3495 48.5294 61.7426C48.3016 62.1279 47.9088 62.1751 47.4296 61.8684C46.4556 61.2473 45.6229 61.5932 45.5444 62.749C45.4501 64.0464 45.4972 65.3594 45.4972 66.6725C45.4972 67.1049 45.7015 67.4116 46.1649 67.5138C46.4006 67.5688 46.6205 67.6789 46.8562 67.7575C46.8483 67.8361 46.8326 67.9069 46.8248 67.9855H46.8326Z" fill="black"/>
<path d="M43.7925 81.2969C44.2403 81.2969 44.6802 81.7215 44.6723 82.1539C44.6645 82.5863 44.2089 82.9795 43.7454 82.9637C43.3212 82.9401 42.952 82.5785 42.9284 82.1539C42.9049 81.7136 43.3212 81.3047 43.7925 81.2969Z" fill="black"/>
</g>
<defs>
<clipPath id="clip0_30_46">
<rect width="69.425" height="70.1263" fill="white" transform="translate(14.1467 14.9368)"/>
</clipPath>
</defs>
</svg>
