<svg width="24" height="24" viewBox="0 0 24 24" fill="none" xmlns="http://www.w3.org/2000/svg">
<path d="M4.79995 3.19995C3.91595 3.19995 3.19995 3.91595 3.19995 4.79995V19.2C3.19995 20.084 3.91595 20.8 4.79995 20.8H19.2C20.084 20.8 20.8 20.084 20.8 19.2V4.79995C20.8 3.91595 20.084 3.19995 19.2 3.19995H4.79995ZM6.9187 7.19995H10.6078L12.7609 10.2781L15.425 7.19995H16.5859L13.2828 11.025L17.3234 16.8H13.6343L11.2453 13.3843L8.29526 16.8H7.11558L10.7203 12.6359L6.9187 7.19995ZM8.70308 8.14683L14.1062 15.8484H15.5375L10.1328 8.14683H8.70308Z" fill="black"/>
</svg>
